<svg xmlns="http://www.w3.org/2000/svg" viewBox="0 0 520 145" role="img" aria-labelledby="title">
  <title id="title">Jotun</title>
  <rect width="520" height="145" fill="#ffb600"/>
  <rect width="520" height="17" fill="#ed1c24"/>
  <g transform="translate(18 22)">
    <path d="M51 8c18 0 32 14 32 32v14c24 5 39 22 39 43H77c-8 0-15-4-20-10-5 6-12 10-20 10H0c0-21 15-38 39-43V20C39 13 44 8 51 8z" fill="#09118f"/>
    <ellipse cx="57" cy="77" rx="23" ry="43" fill="#fff"/>
    <path d="M1 72h34m44 0h42M5 92h32m40 0h40M16 56c-8 11-10 33-2 51m86-51c8 11 10 33 2 51" fill="none" stroke="#fff" stroke-width="4"/>
    <circle cx="58" cy="27" r="4" fill="#fff"/>
  </g>
  <text x="150" y="113" fill="#09118f" font-family="Arial, Helvetica, sans-serif" font-size="98" font-weight="800" letter-spacing="-5">JOTUN</text>
</svg>
